<svg width="124" height="56" viewBox="0 0 124 56" fill="none" xmlns="http://www.w3.org/2000/svg">
<g clip-path="url(#clip0_310_2333)">
<path d="M123.742 44.7884C123.733 46.2675 123.325 47.7166 122.561 48.9815C121.798 50.2464 120.707 51.2798 119.405 51.9718C118.103 52.6638 116.638 52.9886 115.167 52.9115C113.696 52.8345 112.273 52.3585 111.05 51.5343C110.796 51.3615 110.555 51.1723 110.326 50.9679C109.443 50.2032 108.735 49.2556 108.25 48.1902C107.766 47.1248 107.517 45.9668 107.52 44.7957C107.497 43.716 107.69 42.6426 108.09 41.6398C108.489 40.6369 109.085 39.7252 109.844 38.9592C110.602 38.1932 111.506 37.5886 112.502 37.1816C113.499 36.7745 114.566 36.5734 115.642 36.5903C116.713 36.5873 117.773 36.7981 118.762 37.2103C119.751 37.6225 120.648 38.228 121.402 38.9914C122.155 39.7549 122.75 40.6612 123.152 41.6577C123.554 42.6541 123.754 43.7208 123.742 44.7957V44.7884Z" fill="#F9CB46"/>
<path d="M28.9575 21.4429C30.2677 20.4421 31.3501 19.1722 32.1324 17.7178C32.4865 17.0743 32.7726 16.3953 32.9858 15.6919C35.1554 8.68465 30.4401 0 19.1941 0H18.8036V9.30186C19.3246 9.45904 19.7972 9.74683 20.1767 10.1381C20.5563 10.5294 20.8304 11.0113 20.9732 11.5384L22.8246 11.2988L22.2967 13.1577L22.1304 13.7459L21.5446 15.7863L20.062 14.5591V14.5156C19.6038 14.9322 19.0436 15.219 18.4386 15.3466C17.8337 15.4742 17.2059 15.438 16.6195 15.2417L14.6017 14.6608L15.0356 13.1504L15.8962 10.1369L16.3302 8.61203L17.5813 8.9751V0H0V44.5197H23.1862C37.6867 44.5197 39.972 26.9689 28.9575 21.4429ZM17.8634 33.8454H14.6306V26.9689H17.9936C23.0561 26.9689 23.0561 33.8454 17.8634 33.8454Z" fill="#032465"/>
<path d="M99.5143 0.00726318H79.6259V44.527H94.2565V31.2386H99.5143C120.668 31.2386 120.668 0.00726318 99.5143 0.00726318ZM96.1513 20.8693H94.2565V10.7033H96.1513C102.299 10.6234 102.103 20.7967 96.1513 20.8693V20.8693Z" fill="#032465"/>
<path d="M69.038 33.6058L65.5738 28.5228C67.4742 27.8088 69.2004 26.6946 70.6363 25.2552V25.2552C78.8014 16.9844 74.8888 0.00726318 58.913 0.00726318H39.0319V44.527H53.648V30.7303L60.4968 44.527H76.4582L69.038 33.6058ZM53.648 10.6961H55.5501C61.7046 10.6234 61.5094 19.2137 55.5501 19.2718H53.648V10.6961Z" fill="#032465"/>
<path d="M5.10589 50.3869V48.3029H0V56.0073H5.10589V53.8869L2.56741 54.0176V53.2189H4.73705V51.1131H2.56741V50.3869H5.10589Z" fill="#032465"/>
<path d="M10.964 48.2957V51.5996L9.17041 48.2957H6.63916V56H9.17041V52.6961L10.964 56H13.488V48.2957H10.964Z" fill="#032465"/>
<path d="M14.6957 48.2957V50.3869H16.3084V56.0073H18.8397V50.3869H20.4886V48.3029L14.6957 48.2957Z" fill="#032465"/>
<path d="M26.8312 50.3869V48.3029H21.7181V56.0073H26.8312V53.8869L24.2638 54.0176V53.2189H26.4334V51.1131H24.2638V50.3869H26.8312Z" fill="#032465"/>
<path d="M32.9424 53.2262C33.5066 52.996 33.9703 52.571 34.2498 52.0277C34.5293 51.4844 34.6062 50.8586 34.4665 50.2635C34.3268 49.6683 33.9798 49.1428 33.4881 48.782C32.9964 48.4211 32.3925 48.2487 31.7853 48.2957H28.3428V56H30.8812V53.611L32.0673 56H34.8228L32.9424 53.2262ZM31.2067 51.6287H30.8812V50.1764H31.2067C31.3985 50.1745 31.5832 50.2491 31.7202 50.3839C31.8572 50.5187 31.9352 50.7027 31.9371 50.8953C31.939 51.0878 31.8647 51.2733 31.7304 51.4109C31.5962 51.5484 31.413 51.6267 31.2212 51.6287H31.2067Z" fill="#032465"/>
<path d="M35.6038 48.2957V50.3869H37.2817V56.0073H39.8202V50.3869H41.4619V48.3029L35.6038 48.2957Z" fill="#032465"/>
<path d="M46.3002 48.2957H44.5138L41.5486 56H44.0944L44.4343 54.8237H46.3869L46.7269 56H49.2726L46.3002 48.2957ZM45.0201 52.7469L45.4034 51.4253L45.7867 52.7469H45.0201Z" fill="#032465"/>
<path d="M50.4659 48.2957V56H52.9971V48.2957H50.4659Z" fill="#032465"/>
<path d="M58.9781 48.2957V51.5996L57.1845 48.2957H54.6388V56H57.17V52.6961L58.9636 56H61.4949V48.2957H58.9781Z" fill="#032465"/>
<path d="M69.349 48.2957L67.5048 52.3838L65.6678 48.2957H63.1366V56H65.6678V53.1826L66.8611 56H68.1557L69.349 53.1826V56H71.8802V48.2957H69.349Z" fill="#032465"/>
<path d="M78.6279 50.3869V48.3029H73.5219V56.0073H78.6279V53.8869L76.0532 54.0031V53.2189H78.259V51.1131H76.0532V50.3869H78.6279Z" fill="#032465"/>
<path d="M84.4859 48.2957V51.5996L82.6995 48.2957H80.1611V56H82.6995V52.6961L84.4859 56H87.0171V48.2957H84.4859Z" fill="#032465"/>
<path d="M88.2177 48.2957V50.3869H89.8594V56.0073H92.3978V50.3869H94.0395V48.3029L88.2177 48.2957Z" fill="#032465"/>
<path d="M32.9858 15.6919C32.7725 16.3953 32.4865 17.0743 32.1324 17.7179L22.1376 13.7459L22.3039 13.1577L32.9858 15.6919Z" fill="#28BDC0"/>
<path d="M65.5666 28.4938L69.038 33.5768L39.0247 20.6587V17.1877L70.6002 25.1753C69.1815 26.6344 67.464 27.7666 65.5666 28.4938Z" fill="#28BDC0"/>
<path d="M94.3216 31.2313H94.2565V44.4616L79.6259 38.1515V27.5062L94.3216 31.2313Z" fill="#28BDC0"/>
</g>
<defs>
<clipPath id="clip0_310_2333">
<rect width="123.742" height="56" fill="white"/>
</clipPath>
</defs>
</svg>
