<svg xmlns="http://www.w3.org/2000/svg" viewBox="0 0 346.3 26.89"><defs><style>.cls-1{fill:#34715b;}</style></defs><g id="Layer_2" data-name="Layer 2"><g id="Layer_1-2" data-name="Layer 1"><path class="cls-1" d="M3.27,4.84C3.27,2.55,5.15,1,7.84,1a7.23,7.23,0,0,1,6.58,4.82h.69L14.42.63h-.66A.77.77,0,0,1,13,1C11.6,1,10.9,0,7.47,0,3.31,0,.21,2.55.21,5.94c0,7.14,13.1,8.94,13.1,14.82,0,3.23-2.9,4.82-5.63,4.82a7.07,7.07,0,0,1-6.9-5.76H0L.86,26h.69a1,1,0,0,1,.82-.45c.57,0,3.43,1.1,5.68,1.1,4.77,0,8.33-3,8.33-7,0-7.51-13.11-9.06-13.11-14.86"/><path class="cls-1" d="M34.12,25.65c-6.2,0-11.51-5.43-11.51-12.83C22.61,6,26.85,1,33.67,1A9.52,9.52,0,0,1,43,7.31h.78l-.37-5.92h-.61c-.08.12-.29.24-.74.24C40.78,1.63,38.57,0,33.43,0,24.89,0,18.77,5.72,18.77,13.64c0,7.56,6,13,14.25,13,4.82,0,6.62-1.47,9.23-1.1a27.93,27.93,0,0,0,2.61-6h-.77c-2.78,4.94-6.74,6-10,6"/><path class="cls-1" d="M56.18,14.43a18.16,18.16,0,0,1-2.54-.08V1a17.23,17.23,0,0,1,2-.08c6.28,0,8,2.94,8,6.74,0,4.9-3,6.82-7.51,6.82M75.71,1.62c2.29.13,3.06.74,3.06,2.94V22c0,2.36-.5,3.44-2.13,3.43S72,23.5,70,21.45l-3.23-3.22A48.67,48.67,0,0,0,62.1,14c3.34-1,5.43-3.55,5.43-6.62,0-4.16-3.39-7.26-11-7.26-2.65,0-3.47,0-5.14.12s-4.17.24-5.15.24v.78h.9c2.37,0,3.07.73,3.07,3.27V22.07c0,2.74-.86,3.39-3.27,3.39h-.7v.78H57.85v-.78h-.94c-2.29,0-3.27-.61-3.27-3.06V15.12c.66,0,1.19.08,2.09.08,1.1,0,1.75,0,2.77-.08a30.66,30.66,0,0,1,4.21,3.64l2.69,2.69c3.64,3.64,5.41,4.8,12.61,4.8h7.62v-.78c-2.82,0-3.47-.82-3.47-3.23V4.93c0-2.74.9-3.31,3.47-3.31V.85H75.71Z"/><path class="cls-1" d="M99.7,14.37A10.66,10.66,0,0,1,97.5,14v-13a15.93,15.93,0,0,1,2.82-.17C105.75.89,107,4,107,7.22c0,4.13-2.85,7.15-7.31,7.15M100.36.3c-1.1,0-3.06,0-5.07.13s-4,.2-5.14.24v.78h2c1.43,0,1.92.65,1.92,2.16V22.93c0,1.92-.61,2.37-2.74,2.37H90.8v.77h11.31V25.3h-1.34c-2.58,0-3.27-.86-3.27-3.15V15a16.32,16.32,0,0,0,3.47.33c6,0,9.88-3,9.88-7.8,0-3.14-2-7.23-10.49-7.23"/><path class="cls-1" d="M122.17,14.56a10.61,10.61,0,0,1-2.2-.32v-13a16.8,16.8,0,0,1,2.81-.16c5.43,0,6.7,3.14,6.7,6.33,0,4.12-2.86,7.14-7.31,7.14M122.82.31c-1.1,0-3.06,0-5.06.12s-4,.21-5.14.25v.77h2c1.43,0,1.92.66,1.92,2.17V22.93c0,1.92-.62,2.37-2.74,2.37h-.57v.78h11.31V25.3h-1.35c-2.57,0-3.26-.86-3.26-3.14V15a16.26,16.26,0,0,0,3.47.33c6,0,9.88-3,9.88-7.8,0-3.15-2-7.23-10.5-7.23"/><path class="cls-1" d="M140,5c0-2.29,1.88-3.84,4.58-3.84a7.21,7.21,0,0,1,6.57,4.82h.69L151.1.75h-.65a.79.79,0,0,1-.74.41c-1.43,0-2.12-1-5.55-1-4.17,0-7.27,2.53-7.27,5.92C136.89,13.21,150,15,150,20.88c0,3.23-2.9,4.82-5.64,4.82a7.08,7.08,0,0,1-6.9-5.76h-.78l.86,6.21h.7a1,1,0,0,1,.81-.45c.57,0,3.43,1.1,5.68,1.1,4.78,0,8.33-3,8.33-7C153.06,12.31,140,10.76,140,5"/><path class="cls-1" d="M198,7.54a9.53,9.53,0,0,0-9.31-6.28c-6.82,0-11.06,4.93-11.06,11.79,0,7.39,5.31,12.82,11.51,12.82,3.22,0,7.18-1.11,10-6.05h.77a27.63,27.63,0,0,1-2.61,6c-2.61-.36-4.41,1.11-9.22,1.11-8.29,0-14.25-5.47-14.25-13C173.74,6,179.87.24,188.4.24c5.14,0,7.34,1.63,8.61,1.63.45,0,.65-.12.73-.25h.61l.37,5.92Z"/><path class="cls-1" d="M214.84,1.26c-7.19,0-10,6.69-10,11.59,0,7.63,5.18,13,11.75,13s9.84-5.88,9.84-11.68c0-7.59-4.82-12.93-11.55-12.93m.85,25.63c-8,0-14.73-5.15-14.73-12.78C201,6,207.21.23,215.9.23c7.71,0,14.32,5.27,14.32,12.62,0,8.24-6.61,14-14.53,14"/><path class="cls-1" d="M249.4,26.23H231.15v-.77h1.35c1.88,0,2.57-.61,2.57-2.7V4.68c0-2.16-.65-3.06-3.22-3.06h-.57V.85h12v.77h-1.51c-2.66,0-3.35.29-3.35,2.82V23.25c0,1.11.45,1.51,1.63,1.51h6c2.41,0,3.14-.94,5.71-4.49h.74Z"/><path class="cls-1" d="M270.82,26.23H252.57v-.77h1.35c1.88,0,2.57-.61,2.57-2.7V4.68c0-2.16-.65-3.06-3.22-3.06h-.57V.85h12v.77h-1.51c-2.66,0-3.35.29-3.35,2.82V23.25c0,1.11.45,1.51,1.63,1.51h6c2.41,0,3.14-.94,5.72-4.49H274Z"/><path class="cls-1" d="M292.12,17.05h-.78c-.33-2.9-1.1-3.22-2.77-3.22h-6.9v8.69c0,1.88.69,2.24,2.2,2.24h6.29c2.85,0,3.71-1.1,4.73-4.61h.74L295,26.23H273.3v-.77h1.14c3.27,0,3.84-.9,3.84-3.35V4.89c0-2.29-.53-3.27-3.26-3.27h-.9V.85h19.59L294,6.52h-.73c-.53-3.47-1.55-4.2-3-4.2h-8.61v10H289c1.47,0,2.17-.7,2.37-3.06h.78Z"/><path class="cls-1" d="M321.57,24.31a27.41,27.41,0,0,1-10.94,2.58c-8.93,0-13.1-6.9-13.1-12.86,0-6.12,4.29-13.79,14.25-13.79,4.36,0,7.26,1.38,8.12,1.38a1.48,1.48,0,0,0,.94-.28h.57V8h-.82c-1.1-5.1-4.57-6.69-8.37-6.69-7.18,0-10.85,6-10.85,12.52,0,8.37,5.88,12.09,10.57,12.09a13.65,13.65,0,0,0,6.24-1.56V19.17c0-2.32-.81-3.1-3.26-3.1h-1.51v-.73h11v.73c-2,.12-2.86.82-2.86,2.57Z"/><path class="cls-1" d="M342.79,17.05H342c-.32-2.9-1.1-3.22-2.77-3.22h-6.9v8.69c0,1.88.7,2.24,2.21,2.24h6.28c2.86,0,3.71-1.1,4.74-4.61h.73l-.65,6.08H324v-.77h1.14c3.26,0,3.83-.9,3.83-3.35V4.89c0-2.29-.53-3.27-3.26-3.27h-.9V.85h19.59l.33,5.67H344c-.53-3.47-1.55-4.2-3-4.2h-8.61v10h7.31c1.47,0,2.16-.7,2.36-3.06h.78Z"/></g></g></svg>